<?xml version="1.0" encoding="UTF-8"?>
<svg id="Layer_1" xmlns="http://www.w3.org/2000/svg" version="1.1" viewBox="0 0 2724.3 1673">
  <!-- Generator: Adobe Illustrator 29.1.0, SVG Export Plug-In . SVG Version: 2.1.0 Build 142)  -->
  <defs>
    <style>
      .st0 {
        fill: #faa449;
      }
    </style>
  </defs>
  <g id="Layer_3">
    <g id="Layer_11" data-name="Layer_1">
      <path class="st0" d="M1171.6,349.9c-13.3-10.7-6.9-33.3,6.3-44s30.7-14.5,45.4-23.1c27.5-16.3,42.7-51.2,35.7-82.4,20.6-1.7,38.7,16.1,44.6,35.9,5.8,19.8,2.3,41-1.8,61.2,40.7-11.2,80.9-23.9,120.6-38.2-4.6,12.9-9.3,26.3-8.1,39.9,1.2,13.7,10,27.6,23.4,30.3,7.2,1.4,14.6-.6,21.6-2.5,18.4-5,36.7-10.1,55.1-15.1,26.6-7.3,59.4-22.9,56.7-50.4-1-9.6-6.3-20.3-.6-28.1,4.4-6.1,13.3-6.6,20.9-6,45.7,3.6,96.1,39.2,88,84.4-3.8,21-19.2,37.6-30.5,55.7s-18.5,42.7-5.8,59.8c13.3,17.9,40.3,17.3,61.8,11.4s44-15.2,65.4-8.7c12,3.7,23.4,15.3,20.4,27.5-1.5,6.2-6.3,11.1-10.5,15.9-16.9,19.6-26.1,48.7-14.2,71.8s49.7,30.1,63.6,8.2c20.9,8.2,28.4,39,13.6,55.9-6,6.9-14.9,11.8-17.7,20.5-4,12.5,8.1,25.5,21.1,27.6,13,2.1,25.9-3.4,37.9-8.7-.9,25.7-9.8,51.2-25.2,71.8-12.2,16.5-28.4,29.9-39.8,47s-17.5,40.2-7.3,58c14.9,26.1,52.7,25.3,78.2,41.1,22.2,13.7,34.4,41.9,29.3,67.5-20.5-2.9-41.1-5.7-61.6-8.6-13.9,23.6,14.3,51.5,12.3,78.8-2.9,38.9-58.2,46.8-82.7,77.1-27.8,34.4-8.4,85.4,14.9,122.9-13.2-2.2-26.4-4.5-39.6-6.7.6,39.2-24.8,77.5-61.1,92.2-11.5-18.8-30.2-40.4-51-33.1-15.4,5.4-21,23.7-30,37.4-21.6,32.7-65.2,40.2-102.6,51.8s-78.6,40.6-72.7,79.4c-25-2.2-50-4.4-75-6.6-8.4-.7-17.1-1.5-25.2,1.1-9.4,2.9-16.9,9.9-24.9,15.7-27,19.7-62.4,27.4-95.1,20.8,3.3-9.8,6.7-19.6,10-29.4-43,5.1-86,10.1-129,15.2,12.3-15.9,24.7-31.8,37.1-47.7-32.4-.9-64.5,7.4-96.9,6.7-32.4-.7-68-13.5-81.5-42.9-1.9-4.2-3.3-8.8-2.4-13.3,3.1-14.6,29.2-23.5,21-36-30,3.8-60.7,7.6-90.4,1.4s-58.6-24.2-69.6-52.3c25.7-12.5,39.9-44.6,31.9-72-47.8,3.2-92.8-42.5-88.9-90.2,15.4-9.4,26.3-26,28.7-44-36.5-5.1-69.9-28.9-86.5-61.8s-16.1-73.9,1.4-106.3c10.1-18.6,25.3-34.5,32.9-54.2,15.6-40.3-9.5-91.3-50.9-103.7,10.3-15.3,34.2-19,48.6-7.5,11.3-16.4,3.6-42.5-14.9-50,14.9,1,29.8,1.9,44.7,2.9-9.8-34.2-15-71.2-4.4-105.2,10.7-34,40.7-63.8,76.2-64.9-8.4,12.4-6.9,30.6,3.4,41.5,11-30.4,34.7-56,64.1-69.4,24.1-11,51.3-13.8,75.4-24.8s46.1-34.7,41.8-60.9c-1.7-10.5-7.5-21.5-3-31.1,2.3-4.8,6.8-8.2,11.5-10.7,18.7-10,43.1-8.3,60.3,4.1,6.1-17.4,19.9-31.9,36.9-38.9,1.9,19.8,19.2,36.2,38.8,39.3h0Z"/>
    </g>
  </g>
</svg>